<?xml version="1.0" encoding="UTF-8" standalone="no"?>
<svg
   xmlns:dc="http://purl.org/dc/elements/1.1/"
   xmlns:cc="http://creativecommons.org/ns#"
   xmlns:rdf="http://www.w3.org/1999/02/22-rdf-syntax-ns#"
   xmlns:svg="http://www.w3.org/2000/svg"
   xmlns="http://www.w3.org/2000/svg"
   xmlns:sodipodi="http://sodipodi.sourceforge.net/DTD/sodipodi-0.dtd"
   xmlns:inkscape="http://www.inkscape.org/namespaces/inkscape"
   inkscape:version="1.0 (4035a4fb49, 2020-05-01)"
   sodipodi:docname="shvav-8.svg"
   id="svg70"
   version="1.1"
   viewBox="0 0 60 60">
  <metadata
     id="metadata74">
    <rdf:RDF>
      <cc:Work
         rdf:about="">
        <dc:format>image/svg+xml</dc:format>
        <dc:type
           rdf:resource="http://purl.org/dc/dcmitype/StillImage" />
        <dc:title></dc:title>
      </cc:Work>
    </rdf:RDF>
  </metadata>
  <sodipodi:namedview
     inkscape:current-layer="layer1"
     inkscape:window-maximized="1"
     inkscape:window-y="-9"
     inkscape:window-x="-9"
     inkscape:cy="22.998318"
     inkscape:cx="23.79525"
     inkscape:zoom="8.6620581"
     inkscape:snap-to-guides="true"
     inkscape:snap-grids="false"
     showgrid="false"
     id="namedview72"
     inkscape:window-height="1001"
     inkscape:window-width="1920"
     inkscape:pageshadow="2"
     inkscape:pageopacity="0"
     guidetolerance="10"
     gridtolerance="10"
     objecttolerance="10"
     borderopacity="1"
     bordercolor="#666666"
     pagecolor="#ffffff" />
  <defs
     id="defs4">
    <rect
       id="rect942"
       height="51.835256"
       width="36.365492"
       y="4.7332862"
       x="14.777089" />
    <style
       id="style2">.a{fill:#01a650;}.b{fill:#007d49;}.c{fill:#82df5d;}</style>
    <clipPath
       id="clipPath1138"
       clipPathUnits="userSpaceOnUse">
      <text
         transform="matrix(1.7821521,0,0,1.7175003,-18.616923,-15.971456)"
         style="font-style:normal;font-weight:normal;font-size:40px;line-height:1.25;font-family:sans-serif;white-space:pre;shape-inside:url(#rect942);fill:#000000;fill-opacity:1;stroke:none;"
         id="text1142"
         xml:space="preserve"><tspan
           x="14.777344"
           y="41.225635"><tspan>8</tspan></tspan></text>
    </clipPath>
    <clipPath
       id="clipPath1144"
       clipPathUnits="userSpaceOnUse">
      <text
         transform="matrix(1.7821521,0,0,1.7175003,-18.616923,-15.971456)"
         style="font-style:normal;font-weight:normal;font-size:40px;line-height:1.25;font-family:sans-serif;white-space:pre;shape-inside:url(#rect942);fill:#000000;fill-opacity:1;stroke:none;"
         id="text1148"
         xml:space="preserve"><tspan
           x="14.777344"
           y="41.225635"><tspan>8</tspan></tspan></text>
    </clipPath>
    <clipPath
       id="clipPath1150"
       clipPathUnits="userSpaceOnUse">
      <text
         transform="matrix(1.7821521,0,0,1.7175003,-18.616923,-15.971456)"
         style="font-style:normal;font-weight:normal;font-size:40px;line-height:1.25;font-family:sans-serif;white-space:pre;shape-inside:url(#rect942);fill:#000000;fill-opacity:1;stroke:none;"
         id="text1154"
         xml:space="preserve"><tspan
           x="14.777344"
           y="41.225635"><tspan>8</tspan></tspan></text>
    </clipPath>
    <clipPath
       id="clipPath1156"
       clipPathUnits="userSpaceOnUse">
      <text
         transform="matrix(1.7821521,0,0,1.7175003,-18.616923,-15.971456)"
         style="font-style:normal;font-weight:normal;font-size:40px;line-height:1.25;font-family:sans-serif;white-space:pre;shape-inside:url(#rect942);fill:#000000;fill-opacity:1;stroke:none;"
         id="text1160"
         xml:space="preserve"><tspan
           x="14.777344"
           y="41.225635"><tspan>8</tspan></tspan></text>
    </clipPath>
    <clipPath
       id="clipPath1162"
       clipPathUnits="userSpaceOnUse">
      <text
         transform="matrix(1.7821521,0,0,1.7175003,-18.616923,-15.971456)"
         style="font-style:normal;font-weight:normal;font-size:40px;line-height:1.25;font-family:sans-serif;white-space:pre;shape-inside:url(#rect942);fill:#000000;fill-opacity:1;stroke:none;"
         id="text1166"
         xml:space="preserve"><tspan
           x="14.777344"
           y="41.225635"><tspan>8</tspan></tspan></text>
    </clipPath>
    <clipPath
       id="clipPath1168"
       clipPathUnits="userSpaceOnUse">
      <text
         transform="matrix(1.7821521,0,0,1.7175003,-18.616923,-15.971456)"
         style="font-style:normal;font-weight:normal;font-size:40px;line-height:1.25;font-family:sans-serif;white-space:pre;shape-inside:url(#rect942);fill:#000000;fill-opacity:1;stroke:none;"
         id="text1172"
         xml:space="preserve"><tspan
           x="14.777344"
           y="41.225635"><tspan>8</tspan></tspan></text>
    </clipPath>
    <clipPath
       id="clipPath1174"
       clipPathUnits="userSpaceOnUse">
      <text
         transform="matrix(1.7821521,0,0,1.7175003,-18.616923,-15.971456)"
         style="font-style:normal;font-weight:normal;font-size:40px;line-height:1.25;font-family:sans-serif;white-space:pre;shape-inside:url(#rect942);fill:#000000;fill-opacity:1;stroke:none;"
         id="text1178"
         xml:space="preserve"><tspan
           x="14.777344"
           y="41.225635"><tspan>8</tspan></tspan></text>
    </clipPath>
    <clipPath
       id="clipPath1180"
       clipPathUnits="userSpaceOnUse">
      <text
         transform="matrix(1.7821521,0,0,1.7175003,-18.616923,-15.971456)"
         style="font-style:normal;font-weight:normal;font-size:40px;line-height:1.25;font-family:sans-serif;white-space:pre;shape-inside:url(#rect942);fill:#000000;fill-opacity:1;stroke:none;"
         id="text1184"
         xml:space="preserve"><tspan
           x="14.777344"
           y="41.225635"><tspan>8</tspan></tspan></text>
    </clipPath>
    <clipPath
       id="clipPath1186"
       clipPathUnits="userSpaceOnUse">
      <text
         transform="matrix(1.7821521,0,0,1.7175003,-18.616923,-15.971456)"
         style="font-style:normal;font-weight:normal;font-size:40px;line-height:1.25;font-family:sans-serif;white-space:pre;shape-inside:url(#rect942);fill:#000000;fill-opacity:1;stroke:none;"
         id="text1190"
         xml:space="preserve"><tspan
           x="14.777344"
           y="41.225635"><tspan>8</tspan></tspan></text>
    </clipPath>
    <clipPath
       id="clipPath1192"
       clipPathUnits="userSpaceOnUse">
      <text
         transform="matrix(1.7821521,0,0,1.7175003,-18.616923,-15.971456)"
         style="font-style:normal;font-weight:normal;font-size:40px;line-height:1.25;font-family:sans-serif;white-space:pre;shape-inside:url(#rect942);fill:#000000;fill-opacity:1;stroke:none;"
         id="text1196"
         xml:space="preserve"><tspan
           x="14.777344"
           y="41.225635"><tspan>8</tspan></tspan></text>
    </clipPath>
    <clipPath
       id="clipPath1198"
       clipPathUnits="userSpaceOnUse">
      <text
         transform="matrix(1.7821521,0,0,1.7175003,-18.616923,-15.971456)"
         style="font-style:normal;font-weight:normal;font-size:40px;line-height:1.25;font-family:sans-serif;white-space:pre;shape-inside:url(#rect942);fill:#000000;fill-opacity:1;stroke:none;"
         id="text1202"
         xml:space="preserve"><tspan
           x="14.777344"
           y="41.225635"><tspan>8</tspan></tspan></text>
    </clipPath>
    <clipPath
       id="clipPath1204"
       clipPathUnits="userSpaceOnUse">
      <text
         transform="matrix(1.7821521,0,0,1.7175003,-18.616923,-15.971456)"
         style="font-style:normal;font-weight:normal;font-size:40px;line-height:1.25;font-family:sans-serif;white-space:pre;shape-inside:url(#rect942);fill:#000000;fill-opacity:1;stroke:none;"
         id="text1208"
         xml:space="preserve"><tspan
           x="14.777344"
           y="41.225635"><tspan>8</tspan></tspan></text>
    </clipPath>
    <clipPath
       id="clipPath1210"
       clipPathUnits="userSpaceOnUse">
      <text
         transform="matrix(1.7821521,0,0,1.7175003,-18.616923,-15.971456)"
         style="font-style:normal;font-weight:normal;font-size:40px;line-height:1.25;font-family:sans-serif;white-space:pre;shape-inside:url(#rect942);fill:#000000;fill-opacity:1;stroke:none;"
         id="text1214"
         xml:space="preserve"><tspan
           x="14.777344"
           y="41.225635"><tspan>8</tspan></tspan></text>
    </clipPath>
    <clipPath
       id="clipPath1216"
       clipPathUnits="userSpaceOnUse">
      <text
         transform="matrix(1.7821521,0,0,1.7175003,-18.616923,-15.971456)"
         style="font-style:normal;font-weight:normal;font-size:40px;line-height:1.25;font-family:sans-serif;white-space:pre;shape-inside:url(#rect942);fill:#000000;fill-opacity:1;stroke:none;"
         id="text1220"
         xml:space="preserve"><tspan
           x="14.777344"
           y="41.225635"><tspan>8</tspan></tspan></text>
    </clipPath>
    <clipPath
       id="clipPath1222"
       clipPathUnits="userSpaceOnUse">
      <text
         transform="matrix(1.7821521,0,0,1.7175003,-18.616923,-15.971456)"
         style="font-style:normal;font-weight:normal;font-size:40px;line-height:1.25;font-family:sans-serif;white-space:pre;shape-inside:url(#rect942);fill:#000000;fill-opacity:1;stroke:none;"
         id="text1226"
         xml:space="preserve"><tspan
           x="14.777344"
           y="41.225635"><tspan>8</tspan></tspan></text>
    </clipPath>
    <clipPath
       id="clipPath1228"
       clipPathUnits="userSpaceOnUse">
      <text
         transform="matrix(1.7821521,0,0,1.7175003,-18.616923,-15.971456)"
         style="font-style:normal;font-weight:normal;font-size:40px;line-height:1.25;font-family:sans-serif;white-space:pre;shape-inside:url(#rect942);fill:#000000;fill-opacity:1;stroke:none;"
         id="text1232"
         xml:space="preserve"><tspan
           x="14.777344"
           y="41.225635"><tspan>8</tspan></tspan></text>
    </clipPath>
    <clipPath
       id="clipPath1234"
       clipPathUnits="userSpaceOnUse">
      <text
         transform="matrix(1.7821521,0,0,1.7175003,-18.616923,-15.971456)"
         style="font-style:normal;font-weight:normal;font-size:40px;line-height:1.25;font-family:sans-serif;white-space:pre;shape-inside:url(#rect942);fill:#000000;fill-opacity:1;stroke:none;"
         id="text1238"
         xml:space="preserve"><tspan
           x="14.777344"
           y="41.225635"><tspan>8</tspan></tspan></text>
    </clipPath>
    <clipPath
       id="clipPath1240"
       clipPathUnits="userSpaceOnUse">
      <text
         transform="matrix(1.7821521,0,0,1.7175003,-18.616923,-15.971456)"
         style="font-style:normal;font-weight:normal;font-size:40px;line-height:1.25;font-family:sans-serif;white-space:pre;shape-inside:url(#rect942);fill:#000000;fill-opacity:1;stroke:none;"
         id="text1244"
         xml:space="preserve"><tspan
           x="14.777344"
           y="41.225635"><tspan>8</tspan></tspan></text>
    </clipPath>
    <clipPath
       id="clipPath1246"
       clipPathUnits="userSpaceOnUse">
      <text
         transform="matrix(1.7821521,0,0,1.7175003,-18.616923,-15.971456)"
         style="font-style:normal;font-weight:normal;font-size:40px;line-height:1.25;font-family:sans-serif;white-space:pre;shape-inside:url(#rect942);fill:#000000;fill-opacity:1;stroke:none;"
         id="text1250"
         xml:space="preserve"><tspan
           x="14.777344"
           y="41.225635"><tspan>8</tspan></tspan></text>
    </clipPath>
    <clipPath
       id="clipPath1252"
       clipPathUnits="userSpaceOnUse">
      <text
         transform="matrix(1.7821521,0,0,1.7175003,-18.616923,-15.971456)"
         style="font-style:normal;font-weight:normal;font-size:40px;line-height:1.25;font-family:sans-serif;white-space:pre;shape-inside:url(#rect942);fill:#000000;fill-opacity:1;stroke:none;"
         id="text1256"
         xml:space="preserve"><tspan
           x="14.777344"
           y="41.225635"><tspan>8</tspan></tspan></text>
    </clipPath>
    <clipPath
       id="clipPath1258"
       clipPathUnits="userSpaceOnUse">
      <text
         transform="matrix(1.7821521,0,0,1.7175003,-18.616923,-15.971456)"
         style="font-style:normal;font-weight:normal;font-size:40px;line-height:1.25;font-family:sans-serif;white-space:pre;shape-inside:url(#rect942);fill:#000000;fill-opacity:1;stroke:none;"
         id="text1262"
         xml:space="preserve"><tspan
           x="14.777344"
           y="41.225635"><tspan>8</tspan></tspan></text>
    </clipPath>
    <clipPath
       id="clipPath1264"
       clipPathUnits="userSpaceOnUse">
      <text
         transform="matrix(1.7821521,0,0,1.7175003,-18.616923,-15.971456)"
         style="font-style:normal;font-weight:normal;font-size:40px;line-height:1.25;font-family:sans-serif;white-space:pre;shape-inside:url(#rect942);fill:#000000;fill-opacity:1;stroke:none;"
         id="text1268"
         xml:space="preserve"><tspan
           x="14.777344"
           y="41.225635"><tspan>8</tspan></tspan></text>
    </clipPath>
    <clipPath
       id="clipPath1270"
       clipPathUnits="userSpaceOnUse">
      <text
         transform="matrix(1.7821521,0,0,1.7175003,-18.616923,-15.971456)"
         style="font-style:normal;font-weight:normal;font-size:40px;line-height:1.25;font-family:sans-serif;white-space:pre;shape-inside:url(#rect942);fill:#000000;fill-opacity:1;stroke:none;"
         id="text1274"
         xml:space="preserve"><tspan
           x="14.777344"
           y="41.225635"><tspan>8</tspan></tspan></text>
    </clipPath>
    <clipPath
       id="clipPath1276"
       clipPathUnits="userSpaceOnUse">
      <text
         transform="matrix(1.7821521,0,0,1.7175003,-18.616923,-15.971456)"
         style="font-style:normal;font-weight:normal;font-size:40px;line-height:1.25;font-family:sans-serif;white-space:pre;shape-inside:url(#rect942);fill:#000000;fill-opacity:1;stroke:none;"
         id="text1280"
         xml:space="preserve"><tspan
           x="14.777344"
           y="41.225635"><tspan>8</tspan></tspan></text>
    </clipPath>
    <clipPath
       id="clipPath1282"
       clipPathUnits="userSpaceOnUse">
      <text
         transform="matrix(1.7821521,0,0,1.7175003,-18.616923,-15.971456)"
         style="font-style:normal;font-weight:normal;font-size:40px;line-height:1.25;font-family:sans-serif;white-space:pre;shape-inside:url(#rect942);fill:#000000;fill-opacity:1;stroke:none;"
         id="text1286"
         xml:space="preserve"><tspan
           x="14.777344"
           y="41.225635"><tspan>8</tspan></tspan></text>
    </clipPath>
    <clipPath
       id="clipPath1288"
       clipPathUnits="userSpaceOnUse">
      <text
         transform="matrix(1.7821521,0,0,1.7175003,-18.616923,-15.971456)"
         style="font-style:normal;font-weight:normal;font-size:40px;line-height:1.25;font-family:sans-serif;white-space:pre;shape-inside:url(#rect942);fill:#000000;fill-opacity:1;stroke:none;"
         id="text1292"
         xml:space="preserve"><tspan
           x="14.777344"
           y="41.225635"><tspan>8</tspan></tspan></text>
    </clipPath>
    <clipPath
       id="clipPath1294"
       clipPathUnits="userSpaceOnUse">
      <text
         transform="matrix(1.7821521,0,0,1.7175003,-18.616923,-15.971456)"
         style="font-style:normal;font-weight:normal;font-size:40px;line-height:1.25;font-family:sans-serif;white-space:pre;shape-inside:url(#rect942);fill:#000000;fill-opacity:1;stroke:none;"
         id="text1298"
         xml:space="preserve"><tspan
           x="14.777344"
           y="41.225635"><tspan>8</tspan></tspan></text>
    </clipPath>
    <clipPath
       id="clipPath1300"
       clipPathUnits="userSpaceOnUse">
      <text
         transform="matrix(1.7821521,0,0,1.7175003,-18.616923,-15.971456)"
         style="font-style:normal;font-weight:normal;font-size:40px;line-height:1.25;font-family:sans-serif;white-space:pre;shape-inside:url(#rect942);fill:#000000;fill-opacity:1;stroke:none;"
         id="text1304"
         xml:space="preserve"><tspan
           x="14.777344"
           y="41.225635"><tspan>8</tspan></tspan></text>
    </clipPath>
    <clipPath
       id="clipPath1306"
       clipPathUnits="userSpaceOnUse">
      <text
         transform="matrix(1.7821521,0,0,1.7175003,-18.616923,-15.971456)"
         style="font-style:normal;font-weight:normal;font-size:40px;line-height:1.25;font-family:sans-serif;white-space:pre;shape-inside:url(#rect942);fill:#000000;fill-opacity:1;stroke:none;"
         id="text1310"
         xml:space="preserve"><tspan
           x="14.777344"
           y="41.225635"><tspan>8</tspan></tspan></text>
    </clipPath>
    <clipPath
       id="clipPath1312"
       clipPathUnits="userSpaceOnUse">
      <text
         transform="matrix(1.7821521,0,0,1.7175003,-18.616923,-15.971456)"
         style="font-style:normal;font-weight:normal;font-size:40px;line-height:1.25;font-family:sans-serif;white-space:pre;shape-inside:url(#rect942);fill:#000000;fill-opacity:1;stroke:none;"
         id="text1316"
         xml:space="preserve"><tspan
           x="14.777344"
           y="41.225635"><tspan>8</tspan></tspan></text>
    </clipPath>
    <clipPath
       id="clipPath1318"
       clipPathUnits="userSpaceOnUse">
      <text
         transform="matrix(1.7821521,0,0,1.7175003,-18.616923,-15.971456)"
         style="font-style:normal;font-weight:normal;font-size:40px;line-height:1.25;font-family:sans-serif;white-space:pre;shape-inside:url(#rect942);fill:#000000;fill-opacity:1;stroke:none;"
         id="text1322"
         xml:space="preserve"><tspan
           x="14.777344"
           y="41.225635"><tspan>8</tspan></tspan></text>
    </clipPath>
  </defs>
  <g
     style="display:inline"
     inkscape:label="Layer 1"
     id="layer1"
     inkscape:groupmode="layer">
    <path
       clip-path="url(#clipPath1318)"
       id="path8"
       d="m 60,30 a 29.80888,29.80888 0 0 1 -1.23,8.5 c -0.09009,0.34 -0.2,0.67 -0.32007,1 A 29.96633,29.96633 0 0 1 40.5,58.1 3.61228,3.61228 0 0 1 40.15,58.23 c -0.21008,0.08 -0.43005,0.16 -0.65,0.22 l -0.35,0.12 a 28.72389,28.72389 0 0 1 -6.65,1.32 1.98628,1.98628 0 0 1 -0.35,0.03 c -0.21008,0.02 -0.43005,0.03 -0.65,0.04 -0.11,0.01 -0.23,0.01 -0.35,0.01 C 30.77,59.99 30.39,60 30,60 A 29.30842,29.30842 0 0 1 24.5,59.49 C 24.38,59.47 24.26,59.45 24.15,59.42 A 4.68608,4.68608 0 0 1 23.5,59.28 1.4756,1.4756 0 0 1 23.15,59.2 29.96137,29.96137 0 0 1 1.55,39.5 C 1.42988,39.17 1.32,38.84 1.22993,38.5 a 29.32328,29.32328 0 0 1 -1.22,-8 C 0,30.34 0,30.17 0,30 0,29.83 0,29.66 0.01,29.5 a 29.32256,29.32256 0 0 1 1.22,-8 c 0.09009,-0.34 0.2,-0.67 0.32007,-1 A 29.98009,29.98009 0 0 1 49.15,6.92 c 0.02991,0.03 0.06995,0.05 0.1,0.08 a 2.62755,2.62755 0 0 1 0.25,0.22 c 0.22,0.18 0.43994,0.37 0.65,0.56 0.12,0.11 0.24,0.22 0.35,0.33 A 29.86951,29.86951 0 0 1 60,30 Z"
       class="a" />
    <path
       clip-path="url(#clipPath1312)"
       id="path10"
       d="m 35.65,8.5 v 1 h -9.77 l -10,12 H 1.23 c 0.09009,-0.34 0.2,-0.67 0.32007,-1 h 13.85984 l 10,-12 z"
       class="b" />
    <path
       clip-path="url(#clipPath1306)"
       id="path12"
       d="M 38.83008,5.51 A 1.0872,1.0872 0 0 0 38.65,5.5 a 3.50206,3.50206 0 0 0 -3.46008,3 3.15146,3.15146 0 0 0 0,1 3.50206,3.50206 0 0 0 3.46008,3 1.0872,1.0872 0 0 0 0.18005,-0.01 3.49434,3.49434 0 0 0 0,-6.98 z M 38.65,11.5 a 2.5,2.5 0 0 1 0,-5 1.0872,1.0872 0 0 1 0.18005,0.01 2.49622,2.49622 0 0 1 0,4.98 A 1.0872,1.0872 0 0 1 38.65,11.5 Z"
       class="b" />
    <path
       clip-path="url(#clipPath1300)"
       id="path14"
       d="M 38.06006,15.51 A 1.0872,1.0872 0 0 0 37.88,15.5 a 3.50206,3.50206 0 0 0 -3.46008,3 3.15146,3.15146 0 0 0 0,1 3.50206,3.50206 0 0 0 3.46008,3 1.0872,1.0872 0 0 0 0.18005,-0.01 3.49434,3.49434 0 0 0 0,-6.98 z M 37.88,21.5 a 2.5,2.5 0 0 1 0,-5 1.0872,1.0872 0 0 1 0.18005,0.01 2.49622,2.49622 0 0 1 0,4.98 A 1.0872,1.0872 0 0 1 37.88,21.5 Z"
       class="b" />
    <path
       clip-path="url(#clipPath1294)"
       id="path16"
       d="M 24.83008,23.51 A 1.0872,1.0872 0 0 0 24.65,23.5 a 3.49778,3.49778 0 0 0 -0.5,6.96 2.06567,2.06567 0 0 0 0.35,0.03 0.75639,0.75639 0 0 0 0.15,0.01 1.0872,1.0872 0 0 0 0.18005,-0.01 1.73169,1.73169 0 0 0 0.31995,-0.03 1.3576,1.3576 0 0 0 0.35,-0.07 3.49389,3.49389 0 0 0 -0.66992,-6.88 z m 0,5.98 a 1.0872,1.0872 0 0 1 -0.18005,0.01 2.5,2.5 0 0 1 0,-5 1.0872,1.0872 0 0 1 0.18005,0.01 2.49622,2.49622 0 0 1 0,4.98 z"
       class="b" />
    <path
       clip-path="url(#clipPath1288)"
       id="path18"
       d="M 14.06006,26.51 A 1.0872,1.0872 0 0 0 13.88,26.5 a 3.50206,3.50206 0 0 0 -3.46008,3 3.15146,3.15146 0 0 0 0,1 3.50206,3.50206 0 0 0 3.46008,3 1.0872,1.0872 0 0 0 0.18005,-0.01 3.49434,3.49434 0 0 0 0,-6.98 z M 13.88,32.5 a 2.5,2.5 0 0 1 0,-5 1.0872,1.0872 0 0 1 0.18005,0.01 2.49622,2.49622 0 0 1 0,4.98 A 1.0872,1.0872 0 0 1 13.88,32.5 Z"
       class="b" />
    <path
       clip-path="url(#clipPath1282)"
       id="path20"
       d="M 24.06006,43.51 A 1.0872,1.0872 0 0 0 23.88,43.5 a 3.49832,3.49832 0 0 0 -0.73,6.92 1.96544,1.96544 0 0 0 0.35,0.06 c 0.13,0.01 0.25,0.02 0.38,0.02 a 1.0872,1.0872 0 0 0 0.18005,-0.01 0.13852,0.13852 0 0 0 0.09,0 1.97112,1.97112 0 0 0 0.35,-0.05 3.49439,3.49439 0 0 0 -0.43994,-6.93 z m 0.02,5.98 h -0.04 a 0.86039,0.86039 0 0 1 -0.16,0.01 2.5,2.5 0 0 1 0,-5 1.0872,1.0872 0 0 1 0.18005,0.01 2.497,2.497 0 0 1 0.02,4.98 z"
       class="b" />
    <path
       clip-path="url(#clipPath1276)"
       id="path22"
       d="M 48.68994,38.5 H 48.65 v 1 h 0.03992 a 2.52259,2.52259 0 0 0 0,-1 z m 0.65015,0 a 3.48253,3.48253 0 0 0 -3.28,-2.99 1.0872,1.0872 0 0 0 -0.18009,-0.01 3.5,3.5 0 0 0 0,7 1.0872,1.0872 0 0 0 0.18005,-0.01 3.48258,3.48258 0 0 0 3.28,-2.99 3.15146,3.15146 0 0 0 0,-1 z m -3.46009,3 a 2.5,2.5 0 0 1 0,-5 1.0872,1.0872 0 0 1 0.18005,0.01 2.49622,2.49622 0 0 1 0,4.98 A 1.0872,1.0872 0 0 1 45.88,41.5 Z"
       class="b" />
    <path
       clip-path="url(#clipPath1270)"
       id="path24"
       d="m 50.5,25.56 a 1.341,1.341 0 0 0 -0.35,-0.04 v -0.01 a 0.13852,0.13852 0 0 0 -0.09,0 1.0872,1.0872 0 0 0 -0.18,-0.01 c -0.13,0 -0.25,0.01 -0.38,0.02 a 1.971,1.971 0 0 0 -0.35,0.06 3.49159,3.49159 0 0 0 -2.7301,2.92 3.15146,3.15146 0 0 0 0,1 3.50206,3.50206 0 0 0 3.46008,3 1.0872,1.0872 0 0 0 0.18005,-0.01 A 3.49439,3.49439 0 0 0 50.5,25.56 Z m -0.62,5.94 a 2.5,2.5 0 0 1 0,-5 1.0872,1.0872 0 0 1 0.18005,0.01 2.49622,2.49622 0 0 1 0,4.98 A 1.0872,1.0872 0 0 1 49.88,31.5 Z"
       class="b" />
    <path
       clip-path="url(#clipPath1264)"
       id="path26"
       d="m 34.65,18.5 v 1 h -2.5 v 40.42 c -0.21008,0.02 -0.43005,0.03 -0.65,0.04 -0.11,0.01 -0.23,0.01 -0.35,0.01 V 18.5 Z"
       class="b" />
    <path
       clip-path="url(#clipPath1258)"
       id="path28"
       d="m 10.65,29.5 v 1 H 0.01 C 0,30.34 0,30.17 0,30 0,29.83 0,29.66 0.01,29.5 Z"
       class="b" />
    <path
       clip-path="url(#clipPath1252)"
       id="path30"
       d="m 25.15,30 v 9.5 H 1.55 C 1.42988,39.17 1.32,38.84 1.22993,38.5 H 24.15 V 30 Z"
       class="b" />
    <path
       clip-path="url(#clipPath1246)"
       id="path32"
       d="m 24.15,50 v 9.42 A 4.68608,4.68608 0 0 1 23.5,59.28 1.4756,1.4756 0 0 1 23.15,59.2 V 50 Z"
       class="b" />
    <path
       clip-path="url(#clipPath1240)"
       id="path34"
       d="m 39.5,58.45 c 0.22,-0.06 0.44,-0.14 0.65,-0.22 V 29.5 h 6.5 v -1 h -7.5 v 30.07 z"
       class="b" />
    <path
       clip-path="url(#clipPath1234)"
       id="path36"
       d="M 50.15,7.78 V 26 h -1 V 6.92 c 0.02991,0.03 0.06995,0.05 0.1,0.08 a 2.62755,2.62755 0 0 1 0.25,0.22 c 0.22,0.18 0.43994,0.37 0.65,0.56 z"
       class="b" />
    <path
       clip-path="url(#clipPath1228)"
       id="path38"
       d="m 58.77,38.5 c -0.09009,0.34 -0.2,0.67 -0.32007,1 H 48.65 v -1 z"
       class="b" />
    <path
       clip-path="url(#clipPath1222)"
       id="path40"
       d="m 36,8.5 v 1 h -9.77 l -10,12 h -15 c 0.09009,-0.34 0.2,-0.67 0.32007,-1 H 15.77 l 10,-12 z"
       class="c" />
    <path
       clip-path="url(#clipPath1216)"
       id="path42"
       d="M 39,5.5 A 0.9677,0.9677 0 0 0 38.83008,5.51 3.48333,3.48333 0 0 0 35.54,8.5 a 3.142,3.142 0 0 0 0,1 3.48339,3.48339 0 0 0 3.29,2.99 0.9677,0.9677 0 0 0 0.17,0.01 3.5,3.5 0 0 0 0,-7 z m 0,1 a 2.5,2.5 0 0 1 0,5 0.9677,0.9677 0 0 1 -0.16992,-0.01 2.49548,2.49548 0 0 1 0,-4.98 A 0.9677,0.9677 0 0 1 39,6.5 Z"
       class="c" />
    <path
       clip-path="url(#clipPath1210)"
       id="path44"
       d="m 38.24,15.5 a 1.08427,1.08427 0 0 0 -0.17993,0.01 3.48232,3.48232 0 0 0 -3.28,2.99 3.142,3.142 0 0 0 0,1 3.48238,3.48238 0 0 0 3.28,2.99 1.08427,1.08427 0 0 0 0.17993,0.01 3.5,3.5 0 0 0 0,-7 z m 0,1 a 2.5,2.5 0 0 1 0,5 1.08427,1.08427 0 0 1 -0.17993,-0.01 2.49621,2.49621 0 0 1 0,-4.98 A 1.08427,1.08427 0 0 1 38.24,16.5 Z"
       class="c" />
    <path
       clip-path="url(#clipPath1204)"
       id="path46"
       d="m 25,23.5 a 0.9677,0.9677 0 0 0 -0.16992,0.01 3.49361,3.49361 0 0 0 -0.68008,6.88 1.97005,1.97005 0 0 0 0.35,0.06995 1.83935,1.83935 0 0 0 0.33008,0.03 A 0.9677,0.9677 0 0 0 25,30.5 0.75639,0.75639 0 0 0 25.15,30.49 2.06567,2.06567 0 0 0 25.5,30.46 3.49778,3.49778 0 0 0 25,23.5 Z m 0,1 a 2.5,2.5 0 0 1 0,5 0.9677,0.9677 0 0 1 -0.16992,-0.01 2.49548,2.49548 0 0 1 0,-4.98 A 0.9677,0.9677 0 0 1 25,24.5 Z"
       class="c" />
    <path
       clip-path="url(#clipPath1198)"
       id="path48"
       d="m 14.24,26.5 a 1.08427,1.08427 0 0 0 -0.17993,0.01 3.48232,3.48232 0 0 0 -3.28,2.99 3.142,3.142 0 0 0 0,1 3.48238,3.48238 0 0 0 3.28,2.99 1.08427,1.08427 0 0 0 0.17993,0.01 3.5,3.5 0 0 0 0,-7 z m 0,1 a 2.5,2.5 0 1 1 0,5 1.08427,1.08427 0 0 1 -0.17993,-0.01 2.49621,2.49621 0 0 1 0,-4.98 A 1.08427,1.08427 0 0 1 14.24,27.5 Z"
       class="c" />
    <path
       clip-path="url(#clipPath1192)"
       id="path50"
       d="m 24.24,43.5 a 1.08427,1.08427 0 0 0 -0.17993,0.01 3.49324,3.49324 0 0 0 -0.91,6.81 2.01667,2.01667 0 0 0 0.35,0.1 2.60221,2.60221 0 0 0 0.56006,0.07 0.13852,0.13852 0 0 0 0.09,0 v 0.01 h 0.09 a 2.25818,2.25818 0 0 0 0.26,-0.01 3.49982,3.49982 0 0 0 -0.26,-6.99 z m 0,1 a 2.5,2.5 0 1 1 0,5 0.85779,0.85779 0 0 1 -0.15991,-0.01 h -0.04 a 2.497,2.497 0 0 1 0.02,-4.98 A 1.08427,1.08427 0 0 1 24.24,44.5 Z"
       class="c" />
    <path
       clip-path="url(#clipPath1186)"
       id="path52"
       d="m 49.7,38.5 a 3.50193,3.50193 0 0 0 -3.46,-3 1.08427,1.08427 0 0 0 -0.17993,0.01 3.49434,3.49434 0 0 0 0,6.98 1.08427,1.08427 0 0 0 0.17993,0.01 3.50193,3.50193 0 0 0 3.46,-3 3.142,3.142 0 0 0 0,-1 z m -3.46,-2 a 2.51673,2.51673 0 0 1 2.45,2 2.52259,2.52259 0 0 1 0,1 2.51673,2.51673 0 0 1 -2.45,2 1.08427,1.08427 0 0 1 -0.17993,-0.01 2.49621,2.49621 0 0 1 0,-4.98 A 1.08427,1.08427 0 0 1 46.24,36.5 Z"
       class="c" />
    <path
       clip-path="url(#clipPath1180)"
       id="path54"
       d="M 47.74,29 A 2.50035,2.50035 0 0 1 50.06007,26.51 1.0872,1.0872 0 0 0 49.88,26.5 a 2.5,2.5 0 0 0 0,5 1.0872,1.0872 0 0 0 0.18005,-0.01 A 2.5004,2.5004 0 0 1 47.74,29 Z m 2.76,-3.49 a 2.25818,2.25818 0 0 0 -0.26,-0.01 0.276,0.276 0 0 0 -0.09,0.01 0.13852,0.13852 0 0 0 -0.09,0 2.60218,2.60218 0 0 0 -0.56,0.07 2.0168,2.0168 0 0 0 -0.35,0.1 3.4882,3.4882 0 0 0 -2.37,2.82 3.142,3.142 0 0 0 0,1 3.48238,3.48238 0 0 0 3.28,2.99 1.08427,1.08427 0 0 0 0.17993,0.01 3.49982,3.49982 0 0 0 0.26,-6.99 z m -0.43994,1 A 1.08427,1.08427 0 0 1 50.24,26.5 a 2.5,2.5 0 0 1 0,5 1.08427,1.08427 0 0 1 -0.17993,-0.01 2.49621,2.49621 0 0 1 0,-4.98 z"
       class="c" />
    <path
       clip-path="url(#clipPath1174)"
       id="path56"
       d="m 35,18.5 v 1 h -2.5 v 40.39 a 1.98628,1.98628 0 0 1 -0.35,0.03 c -0.21008,0.02 -0.43005,0.03 -0.65,0.04 V 18.5 Z"
       class="c" />
    <path
       clip-path="url(#clipPath1168)"
       id="path58"
       d="m 11,29.5 v 1 H 0.01 C 0,30.34 0,30.17 0,30 0,29.83 0,29.66 0.01,29.5 Z"
       class="c" />
    <path
       clip-path="url(#clipPath1162)"
       id="path60"
       d="m 25.5,30 v 9.5 H 1.55 C 1.42988,39.17 1.32,38.84 1.22993,38.5 H 24.5 V 30 Z"
       class="c" />
    <path
       clip-path="url(#clipPath1156)"
       id="path62"
       d="m 24.5,50 v 9.49 C 24.38,59.47 24.26,59.45 24.15,59.42 A 4.68608,4.68608 0 0 1 23.5,59.28 V 50 Z"
       class="c" />
    <path
       clip-path="url(#clipPath1150)"
       id="path64"
       d="m 47,28.5 v 1 h -6.5 v 28.6 a 3.61228,3.61228 0 0 1 -0.35,0.13 c -0.21008,0.08 -0.43005,0.16 -0.65,0.22 V 28.5 Z"
       class="c" />
    <path
       clip-path="url(#clipPath1144)"
       id="path66"
       d="M 50.5,8.11 V 26 h -1 V 7.22 c 0.22,0.18 0.43994,0.37 0.65,0.56 0.12,0.11 0.24,0.22 0.35,0.33 z"
       class="c" />
    <path
       clip-path="url(#clipPath1138)"
       id="path68"
       d="m 58.77,38.5 c -0.09009,0.34 -0.2,0.67 -0.32007,1 H 49 v -1 z"
       class="c" />
  </g>
</svg>
